HIERARCHY
ROOT Hips
{
	OFFSET 0.000000 0.000000 0.000000 
	CHANNELS 6 Xposition Yposition Zposition Yrotation Zrotation Xrotation 
	JOINT Lumbar
	{
		OFFSET 0.000000 0.000000 0.000000 
		CHANNELS 3 Zrotation Xrotation Yrotation
		JOINT Neck
		{
			OFFSET 0.000000 0.445665 0.000000 
			CHANNELS 3 Zrotation Xrotation Yrotation
			End Site
			{
				OFFSET 0.000000 0.227535 0.000000 
			}
		}
		JOINT RightShoulder
		{
			OFFSET 0.019635 0.377685 0.194865 
			CHANNELS 3 Zrotation Xrotation Yrotation
			JOINT RightElbow
			{
				OFFSET 0.000000 -0.243375 0.000000 
				CHANNELS 2 Zrotation Yrotation
				JOINT RightWrist
				{
					OFFSET 0.000000 -0.264825 0.000000 
					CHANNELS 2 Zrotation Xrotation
					End Site
					{
						OFFSET 0.006600 -0.176220 0.000990 
					}
				}
			}
		}
		JOINT LeftShoulder
		{
			OFFSET 0.019635 0.377685 -0.194865 
			CHANNELS 3 Zrotation Xrotation Yrotation
			JOINT LeftElbow
			{
				OFFSET 0.000000 -0.243375 0.000000 
				CHANNELS 2 Zrotation Yrotation
				JOINT LeftWrist
				{
					OFFSET 0.000000 -0.264825 0.000000 
					CHANNELS 2 Zrotation Xrotation
					End Site
					{
						OFFSET 0.006600 -0.176220 -0.000990 
					}
				}
			}
		}
	}
	JOINT RightHip
	{
		OFFSET 0.052140 -0.069960 0.075570 
		CHANNELS 3 Zrotation Xrotation Yrotation
		JOINT RightKnee
		{
			OFFSET 0.000000 -0.402270 0.000000 
			CHANNELS 1 Zrotation
			JOINT RightAnkle
			{
				OFFSET 0.000000 -0.404085 0.000000 
				CHANNELS 3 Zrotation Xrotation Yrotation
				End Site
				{
					OFFSET 0.204105 -0.089430 0.008415 
				}
			}
		}
	}
	JOINT LeftHip
	{
		OFFSET 0.052140 -0.069960 -0.075570 
		CHANNELS 3 Zrotation Xrotation Yrotation
		JOINT LeftKnee
		{
			OFFSET 0.000000 -0.402270 0.000000 
			CHANNELS 1 Zrotation
			JOINT LeftAnkle
			{
				OFFSET 0.000000 -0.404085 0.000000 
				CHANNELS 3 Zrotation Xrotation Yrotation
				End Site
				{
					OFFSET 0.204105 -0.089430 -0.008415 
				}
			}
		}
	}
}
MOTION
Frames: 14
Frame Time: 0.02
0.00042 0.00011 -0.00014 17.00077 -35.12955 -3.12793 57.16155 1.16952 1.72126 -6.69877 -1.98946 -0.14802 157.05944 -76.76005 -58.25766 11.59652 86.01728 -0.62366 -6.24017 162.1955 73.82967 69.15488 10.12752 -84.46635 -1.72652 9.38162 51.63804 -2.10167 -4.81475 -18.89908 -7.79004 -4.44257 -3.04943 51.28436 5.00684 11.63094 -24.28288 -8.58762 5.19258 3.49983
0.00081 0.00018 -0.00016 17.11725 -35.12316 -3.15438 57.18968 1.14766 1.71045 -6.82058 -1.9641 -0.14763 157.25906 -76.73828 -58.0123 11.63321 85.99863 -0.62399 -6.29065 162.16099 73.86989 69.41628 10.1013 -84.46791 -1.69369 9.39056 51.58859 -2.06479 -4.66936 -18.89879 -7.79696 -4.45951 -3.06217 51.27608 4.94573 11.25938 -24.27932 -8.61207 5.20643 3.51178
0.00119 0.00024 -0.00019 17.23346 -35.11676 -3.18076 57.21774 1.12584 1.6997 -6.94215 -1.93879 -0.14725 157.45816 -76.71658 -57.76756 11.66975 85.98002 -0.62435 -6.34098 162.12656 73.91002 69.67693 10.07515 -84.46946 -1.66096 9.39949 51.53921 -2.02816 -4.52522 -18.8985 -7.8038 -4.47634 -3.07482 51.26779 4.88479 10.88877 -24.27577 -8.63646 5.22024 3.52371
0.00158 0.00031 -0.00021 17.3496 -35.11038 -3.20712 57.24579 1.10405 1.68892 -7.0636 -1.91351 -0.14686 157.65719 -76.69487 -57.52292 11.70631 85.96143 -0.62468 -6.3913 162.09215 73.95012 69.93753 10.04901 -84.47101 -1.62823 9.4084 51.4899 -1.99142 -4.38043 -18.89821 -7.81068 -4.49322 -3.08752 51.25953 4.82387 10.51832 -24.27223 -8.66084 5.23404 3.53564
0.00197 0.00038 -0.00023 17.46595 -35.10403 -3.23354 57.2739 1.08221 1.6781 -7.18523 -1.88817 -0.14648 157.85666 -76.6731 -57.27773 11.74304 85.9428 -0.62496 -6.44177 162.05767 73.99029 70.19885 10.02282 -84.47257 -1.59541 9.41732 51.44056 -1.95439 -4.23402 -18.89791 -7.81766 -4.51022 -3.10031 51.25131 4.76279 10.147 -24.26867 -8.68527 5.24786 3.54759
0.00235 0.00044 -0.00026 17.58186 -35.09752 -3.25983 57.30186 1.06043 1.66748 -7.30668 -1.86294 -0.14609 158.05496 -76.65156 -57.03397 11.7792 85.92422 -0.6255 -6.49181 162.02332 74.03035 70.45809 9.99673 -84.47411 -1.56287 9.42625 51.3911 -1.91857 -4.09462 -18.89765 -7.8242 -4.5267 -3.11269 51.24286 4.70212 9.77788 -24.26515 -8.70955 5.26163 3.55946
0.00274 0.00051 -0.00028 17.69855 -35.09133 -3.28636 57.33009 1.03857 1.65646 -7.42836 -1.83753 -0.14571 158.25545 -76.62955 -56.78757 11.81644 85.90557 -0.62551 -6.54265 161.98877 74.07057 70.72121 9.97048 -84.47568 -1.52981 9.43515 51.34193 -1.8804 -3.94149 -18.89732 -7.83161 -4.54421 -3.12586 51.23489 4.64071 9.40477 -24.26157 -8.73412 5.27551 3.57148
0.00312 0.00057 -0.0003 17.81451 -35.08485 -3.31267 57.35808 1.01678 1.64582 -7.54984 -1.81228 -0.14533 158.45385 -76.608 -56.54365 11.8527 85.88699 -0.626 -6.59275 161.95439 74.11067 70.98076 9.94437 -84.47722 -1.49722 9.44406 51.2925 -1.84432 -3.80059 -18.89705 -7.83825 -4.5608 -3.13834 51.22647 4.57999 9.03532 -24.25804 -8.75842 5.28928 3.58336
0.00351 0.00064 -0.00033 17.92966 -35.07799 -3.33869 57.38574 0.99508 1.63562 -7.6711 -1.78723 -0.14492 158.65005 -76.58693 -56.30243 11.88772 85.86848 -0.62712 -6.64199 161.92026 74.15054 71.23604 9.91845 -84.47874 -1.4652 9.45308 51.24269 -1.8111 -3.67645 -18.89686 -7.84382 -4.57612 -3.14985 51.21748 4.52006 8.67021 -24.25456 -8.78241 5.30295 3.59511
0.0039 0.00071 -0.00035 18.04973 -35.07326 -3.36632 57.4152 0.97285 1.62278 -7.7937 -1.76105 -0.1446 158.85998 -76.56283 -56.04467 11.92975 85.8495 -0.62476 -6.6963 161.8848 74.19148 71.51621 9.89149 -84.48041 -1.4299 9.46176 51.19489 -1.76234 -3.46131 -18.89623 -7.85516 -4.59832 -3.16658 51.21172 4.45542 8.27969 -24.25077 -8.80823 5.31728 3.60771
0.00428 0.00077 -0.00037 18.15925 -35.06406 -3.39057 57.44091 0.95175 1.61557 -7.91338 -1.73724 -0.14411 159.04025 -76.54531 -55.8225 11.95705 85.83153 -0.62964 -6.73983 161.85209 74.23031 71.74364 9.8667 -84.48176 -1.40151 9.47098 51.14297 -1.74576 -3.43464 -18.89652 -7.85457 -4.60626 -3.17249 51.1992 4.40081 7.94313 -24.24764 -8.83016 5.33018 3.61848
0.00464 0.0008 -0.00037 18.24089 -35.04221 -3.40545 57.45597 0.93384 1.62344 -8.02583 -1.72015 -0.14313 159.14404 -76.54465 -55.69333 11.94294 85.81629 -0.65542 -6.75431 161.82735 74.26234 71.82642 9.84804 -84.48224 -1.3923 9.48328 51.07849 -1.82353 -3.95989 -18.89936 -7.81903 -4.5726 -3.14681 51.16753 4.37332 7.75396 -24.24636 -8.84154 5.33935 3.62424
0.00499 0.00082 -0.00037 18.3117 -35.01592 -3.41694 57.46732 0.91706 1.63703 -8.13521 -1.70539 -0.14198 159.21708 -76.55089 -55.60081 11.91419 85.80207 -0.68832 -6.75786 161.80525 74.29252 71.85603 9.83153 -84.48238 -1.39004 9.49588 51.01012 -1.93254 -4.66822 -18.90311 -7.77191 -4.52507 -3.11061 51.12916 4.35608 7.61964 -24.24575 -8.84894 5.34702 3.62812
0.00534 0.00085 -0.00037 18.38683 -34.9919 -3.43003 57.48062 0.8997 1.64821 -8.2455 -1.68941 -0.1409 159.30105 -76.55469 -55.49455 11.89278 85.78741 -0.71721 -6.76605 161.78175 74.32414 71.91014 9.81388 -84.48268 -1.38438 9.50726 50.94435 -2.02329 -5.2698 -18.9064 -7.73158 -4.48555 -3.08051 51.09425 4.33424 7.45999 -24.24482 -8.85816 5.35529 3.63286
